<svg width="24" height="24" viewBox="0 0 24 24" fill="none" xmlns="http://www.w3.org/2000/svg">
<path d="M6 6C6 4.89543 6.89543 4 8 4H16C17.1046 4 18 4.89543 18 6V18.9597C18 19.3789 17.515 19.612 17.1877 19.3501L15.9028 18.3223C15.6824 18.1459 15.3598 18.1869 15.1905 18.4127L14.3459 19.5388C14.1633 19.7822 13.8075 19.8075 13.5923 19.5923L12.3536 18.3536C12.1583 18.1583 11.8417 18.1583 11.6464 18.3536L10.4077 19.5923C10.1925 19.8075 9.83666 19.7822 9.6541 19.5388L8.80952 18.4127C8.64016 18.1869 8.31758 18.1459 8.09717 18.3223L6.81235 19.3501C6.48497 19.612 6 19.3789 6 18.9597V6Z" stroke="currentColor" stroke-width="1.5"/>
<path d="M9.5 8H14.5" stroke="currentColor" stroke-width="1.5" stroke-linecap="round"/>
<path d="M9.5 12H12.5" stroke="currentColor" stroke-width="1.5" stroke-linecap="round"/>
</svg>
