<svg width="24" height="24" viewBox="0 0 24 24" fill="none" xmlns="http://www.w3.org/2000/svg">
<path d="M13.4526 8.1423C13.4678 8.09672 13.5322 8.09672 13.5474 8.1423L14.4007 10.702C14.6993 11.5978 15.4022 12.3007 16.298 12.5993L18.8577 13.4526C18.9033 13.4678 18.9033 13.5322 18.8577 13.5474L16.298 14.4007C15.4022 14.6993 14.6993 15.4022 14.4007 16.298L13.5474 18.8577C13.5322 18.9033 13.4678 18.9033 13.4526 18.8577L12.5993 16.298C12.3007 15.4022 11.5978 14.6993 10.702 14.4007L8.1423 13.5474C8.09672 13.5322 8.09672 13.4678 8.1423 13.4526L10.702 12.5993C11.5978 12.3007 12.3007 11.5978 12.5993 10.702L13.4526 8.1423Z" stroke="currenColor" stroke-width="1.5"/>
<path d="M7.4903 5.03881C7.49282 5.02871 7.50718 5.02871 7.5097 5.03881L7.70896 5.83583C7.8881 6.5524 8.4476 7.1119 9.16417 7.29104L9.96547 7.49137C9.97528 7.49382 9.97568 7.5076 9.96603 7.51061L9.05195 7.79627C8.39707 8.00091 7.89281 8.52696 7.71603 9.1899L7.50966 9.96377C7.50702 9.97366 7.49298 9.97366 7.49034 9.96377L7.28397 9.1899C7.10719 8.52696 6.60293 8.00091 5.94805 7.79627L5.03397 7.51061C5.02432 7.5076 5.02472 7.49382 5.03453 7.49137L5.83583 7.29104C6.5524 7.1119 7.1119 6.5524 7.29104 5.83583L7.4903 5.03881Z" stroke="currenColor" stroke-width="1.5"/>
</svg>
